# xmcd
#
# Track frame offsets:
#	150
#	24115
#	46475
#	67915
#	94475
#	113198
#	132558
#	158637
#	181619
#	200739
#	235990
#	253607
#	283422
#	305378
#	321638
#
# Disc length: 4783 seconds
#
# Revision: 0
# Processed by: cddbd v1.4PL0 Copyright (c) Steve Scherf et al.
# Submitted via: dBpowerAMP V4.0
#
DISCID=da12ad0f
DTITLE=Santana - Best of (the different edit)
DYEAR=1900
DGENRE=Latin
TTITLE0=Black Magic Woman
TTITLE1=Smooth (feat. Rob Thomas)
TTITLE2=Samba Pa Ti
TTITLE3=(Da Le) Yaled
TTITLE4=She's Not There
TTITLE5=Oye Como Va
TTITLE6=Love of My Life (feat. Dave Matthews)
TTITLE7=Europa - Earth's Cry, Heaven's Smiles
TTITLE8=Jingo
TTITLE9=The Calling
TTITLE10=Evil Ways
TTITLE11=Soul Sacrifice
TTITLE12=Wishing It Was (feat. Eagle Eye Cherry)
TTITLE13=As the Years Go By
TTITLE14=Jin-Go-Lo-Ba
EXTD=
EXTT0=
EXTT1=
EXTT2=
EXTT3=
EXTT4=
EXTT5=
EXTT6=
EXTT7=
EXTT8=
EXTT9=
EXTT10=
EXTT11=
EXTT12=
EXTT13=
EXTT14=
PLAYORDER=
